<svg xmlns="http://www.w3.org/2000/svg" viewBox="0 0 171.75 78.75"><defs><style>.cls-1{fill:none;stroke:#000;stroke-linecap:round;stroke-linejoin:round;}</style></defs><title>logo02w</title><g id="Layer_2" data-name="Layer 2"><g id="Layer_1-2" data-name="Layer 1"><polygon class="cls-1" points="171.25 78.25 136.5 78.25 107.58 20.04 79 78.25 68.25 78.25 39.49 20.12 15.5 68.5 29.75 68.5 42 44.5 47 53.25 34.5 78.25 0.5 78.25 39.25 0.5 44.75 9.5 73.43 68.11 108 0.5 112.75 9.5 141.75 68.5 156.5 68.5 122.75 0.5 132.25 0.5 171.25 78.25"/><polygon class="cls-1" points="81.25 34.75 77.25 43.88 54.5 0.5 64.25 0.5 81.25 34.75"/><polygon class="cls-1" points="110.5 43.88 115.5 53.75 103.75 78.25 93 78.25 110.5 43.88"/></g></g></svg>