<?xml version="1.0" encoding="utf-8"?>
<!-- Generator: Adobe Illustrator 22.0.1, SVG Export Plug-In . SVG Version: 6.00 Build 0)  -->
<svg version="1.1" id="Layer_1" xmlns="http://www.w3.org/2000/svg" xmlns:xlink="http://www.w3.org/1999/xlink" x="0px" y="0px"
	 viewBox="0 0 170.8 77.8" style="enable-background:new 0 0 170.8 77.8;" xml:space="preserve">
<title>logo03b</title>
<g id="Layer_2_1_">
	<g id="Layer_1-2">
		<polygon points="462.4,94.8 429.8,94.8 402.7,36.5 375.9,94.8 365.9,94.8 338.9,36.6 316.4,85 329.8,85 341.3,61 345.9,69.8 
			334.2,94.8 302.4,94.8 338.7,17 343.8,26 370.7,84.6 403.1,17 407.6,26 434.7,85 448.6,85 416.9,17 425.8,17 		"/>
		<polygon points="378,51.3 374.3,60.4 353,17 362.1,17 		"/>
		<polygon points="405.4,60.4 410.1,70.3 399.1,94.8 389.1,94.8 		"/>
	</g>
</g>
<text transform="matrix(1 0 0 1 304 120)" style="font-family:'Montserrat-Regular'; font-size:21px; letter-spacing:8;">MATSPON </text>
<text transform="matrix(1 0 0 1 307.5 134)" style="font-family:'Montserrat-Regular'; font-size:12px; letter-spacing:1;">CONSULT &amp; SERVICES</text>
</svg>
