<svg xmlns="http://www.w3.org/2000/svg" viewBox="0 0 170.75 77.75"><title>logo03b</title><g id="Layer_2" data-name="Layer 2"><g id="Layer_1-2" data-name="Layer 1"><polygon points="170.75 77.75 136 77.75 107.08 19.54 78.5 77.75 67.75 77.75 38.99 19.62 15 68 29.25 68 41.5 44 46.5 52.75 34 77.75 0 77.75 38.75 0 44.25 9 72.93 67.61 107.5 0 112.25 9 141.25 68 156 68 122.25 0 131.75 0 170.75 77.75"/><polygon points="80.75 34.25 76.75 43.38 54 0 63.75 0 80.75 34.25"/><polygon points="110 43.38 115 53.25 103.25 77.75 92.5 77.75 110 43.38"/></g></g></svg>