<svg xmlns="http://www.w3.org/2000/svg" viewBox="0 0 172.37 79.33"><defs><style>.cls-1{fill:none;stroke:#4d2c1f;stroke-miterlimit:10;}</style></defs><title>logo04br</title><g id="Layer_2" data-name="Layer 2"><g id="Layer_1-2" data-name="Layer 1"><polygon class="cls-1" points="171.56 78.83 136.81 78.83 107.89 20.63 79.31 78.83 68.56 78.83 39.8 20.7 15.81 69.08 30.06 69.08 42.31 45.09 47.31 53.84 34.81 78.83 0.81 78.83 39.56 1.08 45.06 10.09 73.74 68.69 108.31 1.08 113.06 10.09 142.06 69.08 156.81 69.08 123.06 1.08 132.56 1.08 171.56 78.83"/><polygon class="cls-1" points="81.56 35.34 77.56 44.46 54.81 1.08 64.56 1.08 81.56 35.34"/><polygon class="cls-1" points="110.81 44.46 115.81 54.34 104.06 78.83 93.31 78.83 110.81 44.46"/></g></g></svg>