<svg xmlns="http://www.w3.org/2000/svg" xmlns:xlink="http://www.w3.org/1999/xlink" viewBox="0 0 170.75 77.75"><defs><style>.cls-1{fill:url(#linear-gradient);}.cls-2{fill:url(#linear-gradient-2);}.cls-3{fill:url(#linear-gradient-3);}.cls-4{fill:url(#linear-gradient-4);}.cls-5{fill:url(#linear-gradient-5);}.cls-6{fill:url(#linear-gradient-6);}</style><linearGradient id="linear-gradient" y1="38.88" x2="46.5" y2="38.88" gradientUnits="userSpaceOnUse"><stop offset="0" stop-color="#4d2c1f"/><stop offset="0.5" stop-color="#8d5139"/><stop offset="1" stop-color="#da7d58"/></linearGradient><linearGradient id="linear-gradient-2" x1="38.99" y1="43.38" x2="73" y2="43.38" xlink:href="#linear-gradient"/><linearGradient id="linear-gradient-3" x1="67.75" y1="38.88" x2="112.25" y2="38.88" xlink:href="#linear-gradient"/><linearGradient id="linear-gradient-4" x1="54" y1="21.69" x2="80.75" y2="21.69" xlink:href="#linear-gradient"/><linearGradient id="linear-gradient-5" x1="92.5" y1="60.56" x2="115" y2="60.56" xlink:href="#linear-gradient"/><linearGradient id="linear-gradient-6" x1="107.08" y1="38.88" x2="170.75" y2="38.88" xlink:href="#linear-gradient"/></defs><title>logo01</title><g id="Layer_2" data-name="Layer 2"><g id="Layer_1-2" data-name="Layer 1"><polygon class="cls-1" points="41.5 44 29.25 68 15 68 44.25 9 38.75 0 0 77.75 34 77.75 46.5 52.75 41.5 44"/><polygon class="cls-2" points="44.25 9 38.99 19.62 67.75 77.75 73 67.75 44.25 9"/><polygon class="cls-3" points="67.75 77.75 78.5 77.75 112.25 9 107.5 0 67.75 77.75"/><polygon class="cls-4" points="80.75 34.25 76.75 43.38 54 0 63.75 0 80.75 34.25"/><polygon class="cls-5" points="110 43.38 115 53.25 103.25 77.75 92.5 77.75 110 43.38"/><polygon class="cls-6" points="112.25 9 112.25 9 107.08 19.54 136 77.75 170.75 77.75 131.75 0 122.25 0 156 68 141.25 68 112.25 9"/></g></g></svg>